<?xml version="1.0" encoding="UTF-8" standalone="no"?>
<!DOCTYPE svg PUBLIC "-//W3C//DTD SVG 1.1//EN"
 "http://www.w3.org/Graphics/SVG/1.1/DTD/svg11.dtd">
<!-- Generated by graphviz version 2.36.0 (20140111.2315)
 -->
<!-- Title: G Pages: 1 -->
<svg width="683pt" height="227pt"
 viewBox="0.00 0.00 683.20 227.20" xmlns="http://www.w3.org/2000/svg" xmlns:xlink="http://www.w3.org/1999/xlink">
<g id="graph0" class="graph" transform="scale(1 1) rotate(0) translate(21.6 205.6)">
<title>G</title>
<polygon fill="#111111" stroke="none" points="-21.6,21.6 -21.6,-205.6 661.6,-205.6 661.6,21.6 -21.6,21.6"/>
<!-- helpers.js -->
<g id="node1" class="node"><title>helpers.js</title>
<path fill="none" stroke="#c6c5fe" d="M517.333,-184.5C517.333,-184.5 456.667,-184.5 456.667,-184.5 452.833,-184.5 449,-180.667 449,-176.833 449,-176.833 449,-169.167 449,-169.167 449,-165.333 452.833,-161.5 456.667,-161.5 456.667,-161.5 517.333,-161.5 517.333,-161.5 521.167,-161.5 525,-165.333 525,-169.167 525,-169.167 525,-176.833 525,-176.833 525,-180.667 521.167,-184.5 517.333,-184.5"/>
<text text-anchor="middle" x="487" y="-169.3" font-family="Arial" font-size="14.00" fill="#c6c5fe">helpers.js</text>
</g>
<!-- util.js -->
<g id="node2" class="node"><title>util.js</title>
<path fill="none" stroke="#cfffac" d="M632.333,-124.5C632.333,-124.5 593.667,-124.5 593.667,-124.5 589.833,-124.5 586,-120.667 586,-116.833 586,-116.833 586,-109.167 586,-109.167 586,-105.333 589.833,-101.5 593.667,-101.5 593.667,-101.5 632.333,-101.5 632.333,-101.5 636.167,-101.5 640,-105.333 640,-109.167 640,-109.167 640,-116.833 640,-116.833 640,-120.667 636.167,-124.5 632.333,-124.5"/>
<text text-anchor="middle" x="613" y="-109.3" font-family="Arial" font-size="14.00" fill="#cfffac">util.js</text>
</g>
<!-- helpers.js&#45;&gt;util.js -->
<g id="edge1" class="edge"><title>helpers.js&#45;&gt;util.js</title>
<path fill="none" stroke="#757575" d="M516.673,-161.708C527.255,-157.349 539.276,-152.171 550,-147 561.204,-141.597 573.251,-135.145 583.719,-129.321"/>
<polygon fill="#757575" stroke="#757575" points="585.453,-132.361 592.45,-124.406 582.019,-126.261 585.453,-132.361"/>
</g>
<!-- index.js -->
<g id="node3" class="node"><title>index.js</title>
<path fill="none" stroke="#c6c5fe" d="M56.3333,-143.5C56.3333,-143.5 7.66667,-143.5 7.66667,-143.5 3.83333,-143.5 0,-139.667 0,-135.833 0,-135.833 0,-128.167 0,-128.167 0,-124.333 3.83333,-120.5 7.66667,-120.5 7.66667,-120.5 56.3333,-120.5 56.3333,-120.5 60.1667,-120.5 64,-124.333 64,-128.167 64,-128.167 64,-135.833 64,-135.833 64,-139.667 60.1667,-143.5 56.3333,-143.5"/>
<text text-anchor="middle" x="32" y="-128.3" font-family="Arial" font-size="14.00" fill="#c6c5fe">index.js</text>
</g>
<!-- index.js&#45;&gt;helpers.js -->
<g id="edge2" class="edge"><title>index.js&#45;&gt;helpers.js</title>
<path fill="none" stroke="#757575" d="M64.1365,-134.818C141.993,-141.865 345.526,-160.286 438.471,-168.698"/>
<polygon fill="#757575" stroke="#757575" points="438.436,-172.209 448.711,-169.625 439.067,-165.238 438.436,-172.209"/>
</g>
<!-- store.js -->
<g id="node4" class="node"><title>store.js</title>
<path fill="none" stroke="#c6c5fe" d="M154.333,-104.5C154.333,-104.5 107.667,-104.5 107.667,-104.5 103.833,-104.5 100,-100.667 100,-96.8333 100,-96.8333 100,-89.1667 100,-89.1667 100,-85.3333 103.833,-81.5 107.667,-81.5 107.667,-81.5 154.333,-81.5 154.333,-81.5 158.167,-81.5 162,-85.3333 162,-89.1667 162,-89.1667 162,-96.8333 162,-96.8333 162,-100.667 158.167,-104.5 154.333,-104.5"/>
<text text-anchor="middle" x="131" y="-89.3" font-family="Arial" font-size="14.00" fill="#c6c5fe">store.js</text>
</g>
<!-- index.js&#45;&gt;store.js -->
<g id="edge3" class="edge"><title>index.js&#45;&gt;store.js</title>
<path fill="none" stroke="#757575" d="M61.0564,-120.72C70.9093,-116.758 82.1401,-112.243 92.6354,-108.023"/>
<polygon fill="#757575" stroke="#757575" points="94.0341,-111.233 102.007,-104.255 91.4228,-104.738 94.0341,-111.233"/>
</g>
<!-- store.js&#45;&gt;util.js -->
<g id="edge10" class="edge"><title>store.js&#45;&gt;util.js</title>
<path fill="none" stroke="#757575" d="M162.131,-104.168C173.242,-107.74 186.038,-111.227 198,-113 336.242,-133.486 503.314,-122.853 575.674,-116.554"/>
<polygon fill="#757575" stroke="#757575" points="576,-120.039 585.648,-115.66 575.375,-113.067 576,-120.039"/>
</g>
<!-- mixin.js -->
<g id="node5" class="node"><title>mixin.js</title>
<path fill="none" stroke="#cfffac" d="M316.833,-104.5C316.833,-104.5 269.167,-104.5 269.167,-104.5 265.333,-104.5 261.5,-100.667 261.5,-96.8333 261.5,-96.8333 261.5,-89.1667 261.5,-89.1667 261.5,-85.3333 265.333,-81.5 269.167,-81.5 269.167,-81.5 316.833,-81.5 316.833,-81.5 320.667,-81.5 324.5,-85.3333 324.5,-89.1667 324.5,-89.1667 324.5,-96.8333 324.5,-96.8333 324.5,-100.667 320.667,-104.5 316.833,-104.5"/>
<text text-anchor="middle" x="293" y="-89.3" font-family="Arial" font-size="14.00" fill="#cfffac">mixin.js</text>
</g>
<!-- store.js&#45;&gt;mixin.js -->
<g id="edge7" class="edge"><title>store.js&#45;&gt;mixin.js</title>
<path fill="none" stroke="#757575" d="M162.095,-93C187.299,-93 223.507,-93 251.298,-93"/>
<polygon fill="#757575" stroke="#757575" points="251.496,-96.5001 261.496,-93 251.496,-89.5001 251.496,-96.5001"/>
</g>
<!-- module/module&#45;collection.js -->
<g id="node6" class="node"><title>module/module&#45;collection.js</title>
<path fill="none" stroke="#c6c5fe" d="M379.833,-63.5C379.833,-63.5 206.167,-63.5 206.167,-63.5 202.333,-63.5 198.5,-59.6667 198.5,-55.8333 198.5,-55.8333 198.5,-48.1667 198.5,-48.1667 198.5,-44.3333 202.333,-40.5 206.167,-40.5 206.167,-40.5 379.833,-40.5 379.833,-40.5 383.667,-40.5 387.5,-44.3333 387.5,-48.1667 387.5,-48.1667 387.5,-55.8333 387.5,-55.8333 387.5,-59.6667 383.667,-63.5 379.833,-63.5"/>
<text text-anchor="middle" x="293" y="-48.3" font-family="Arial" font-size="14.00" fill="#c6c5fe">module/module&#45;collection.js</text>
</g>
<!-- store.js&#45;&gt;module/module&#45;collection.js -->
<g id="edge8" class="edge"><title>store.js&#45;&gt;module/module&#45;collection.js</title>
<path fill="none" stroke="#757575" d="M162.045,-82.753C173.258,-79.1109 186.144,-75.1394 198,-72 206.647,-69.7105 215.794,-67.5028 224.853,-65.4431"/>
<polygon fill="#757575" stroke="#757575" points="225.62,-68.8581 234.621,-63.2693 224.1,-62.0253 225.62,-68.8581"/>
</g>
<!-- plugins/devtool.js -->
<g id="node8" class="node"><title>plugins/devtool.js</title>
<path fill="none" stroke="#cfffac" d="M347.333,-22.5C347.333,-22.5 238.667,-22.5 238.667,-22.5 234.833,-22.5 231,-18.6667 231,-14.8333 231,-14.8333 231,-7.16667 231,-7.16667 231,-3.33333 234.833,0.5 238.667,0.5 238.667,0.5 347.333,0.5 347.333,0.5 351.167,0.5 355,-3.33333 355,-7.16667 355,-7.16667 355,-14.8333 355,-14.8333 355,-18.6667 351.167,-22.5 347.333,-22.5"/>
<text text-anchor="middle" x="293" y="-7.3" font-family="Arial" font-size="14.00" fill="#cfffac">plugins/devtool.js</text>
</g>
<!-- store.js&#45;&gt;plugins/devtool.js -->
<g id="edge9" class="edge"><title>store.js&#45;&gt;plugins/devtool.js</title>
<path fill="none" stroke="#757575" d="M140.915,-81.4027C152.482,-67.2121 174.039,-43.5322 198,-31 205.147,-27.2617 212.948,-24.2221 220.899,-21.7505"/>
<polygon fill="#757575" stroke="#757575" points="221.962,-25.0875 230.639,-19.0088 220.065,-18.3493 221.962,-25.0875"/>
</g>
<!-- module/module&#45;collection.js&#45;&gt;util.js -->
<g id="edge5" class="edge"><title>module/module&#45;collection.js&#45;&gt;util.js</title>
<path fill="none" stroke="#757575" d="M352.697,-63.2594C418.112,-75.8076 521.811,-95.6996 576.128,-106.119"/>
<polygon fill="#757575" stroke="#757575" points="575.511,-109.564 585.991,-108.011 576.83,-102.69 575.511,-109.564"/>
</g>
<!-- module/module.js -->
<g id="node7" class="node"><title>module/module.js</title>
<path fill="none" stroke="#c6c5fe" d="M542.333,-64.5C542.333,-64.5 431.667,-64.5 431.667,-64.5 427.833,-64.5 424,-60.6667 424,-56.8333 424,-56.8333 424,-49.1667 424,-49.1667 424,-45.3333 427.833,-41.5 431.667,-41.5 431.667,-41.5 542.333,-41.5 542.333,-41.5 546.167,-41.5 550,-45.3333 550,-49.1667 550,-49.1667 550,-56.8333 550,-56.8333 550,-60.6667 546.167,-64.5 542.333,-64.5"/>
<text text-anchor="middle" x="487" y="-49.3" font-family="Arial" font-size="14.00" fill="#c6c5fe">module/module.js</text>
</g>
<!-- module/module&#45;collection.js&#45;&gt;module/module.js -->
<g id="edge4" class="edge"><title>module/module&#45;collection.js&#45;&gt;module/module.js</title>
<path fill="none" stroke="#757575" d="M387.75,-52.4883C396.48,-52.5338 405.235,-52.5794 413.726,-52.6236"/>
<polygon fill="#757575" stroke="#757575" points="413.914,-56.1245 423.932,-52.6767 413.951,-49.1246 413.914,-56.1245"/>
</g>
<!-- module/module.js&#45;&gt;util.js -->
<g id="edge6" class="edge"><title>module/module.js&#45;&gt;util.js</title>
<path fill="none" stroke="#757575" d="M515.371,-64.3719C526.238,-69.0286 538.794,-74.5879 550,-80 560.845,-85.2375 572.55,-91.3455 582.837,-96.8728"/>
<polygon fill="#757575" stroke="#757575" points="581.362,-100.054 591.821,-101.744 584.699,-93.9006 581.362,-100.054"/>
</g>
</g>
</svg>
